<svg width="21" height="20" viewBox="0 0 21 20" fill="none" xmlns="http://www.w3.org/2000/svg">
<g id="cloud" clip-path="url(#clip0_2_99)">
<path id="Vector" d="M15.75 8.33334H14.6475C14.3201 7.12584 13.6437 6.03 12.6951 5.17034C11.7464 4.31068 10.5636 3.72167 9.28106 3.47024C7.99849 3.21881 6.66759 3.31504 5.43958 3.748C4.21157 4.18096 3.13569 4.93329 2.3342 5.91949C1.53271 6.9057 1.03775 8.08624 0.905549 9.32697C0.773351 10.5677 1.00922 11.8189 1.58636 12.9383C2.1635 14.0578 3.05876 15.0006 4.17041 15.6596C5.28207 16.3187 6.56555 16.6676 7.87501 16.6667H15.75C16.9103 16.6667 18.0231 16.2277 18.8436 15.4463C19.6641 14.6649 20.125 13.6051 20.125 12.5C20.125 11.3949 19.6641 10.3351 18.8436 9.55373C18.0231 8.77233 16.9103 8.33334 15.75 8.33334Z" stroke="#4C4DDB" stroke-width="2" stroke-linecap="round" stroke-linejoin="round"/>
</g>
<defs>
<clipPath id="clip0_2_99">
<rect width="21" height="20" fill="white"/>
</clipPath>
</defs>
</svg>
